<?xml version="1.0" standalone="no"?>
<!DOCTYPE svg PUBLIC "-//W3C//DTD SVG 20010904//EN"
 "http://www.w3.org/TR/2001/REC-SVG-20010904/DTD/svg10.dtd">
<svg version="1.0" xmlns="http://www.w3.org/2000/svg"
 width="360.000000pt" height="360.000000pt" viewBox="0 0 360.000000 360.000000"
 preserveAspectRatio="xMidYMid meet">

<g transform="translate(0.000000,360.000000) scale(0.100000,-0.100000)"
fill="#000000" stroke="none">
<path d="M2855 2804 c-16 -2 -73 -9 -125 -15 -81 -9 -106 -17 -167 -51 -40
-21 -73 -35 -73 -29 0 6 4 11 9 11 9 0 24 30 18 36 -1 2 -39 -6 -82 -17 -51
-13 -93 -31 -117 -50 -44 -34 -53 -36 -38 -8 7 11 10 22 8 24 -5 6 -229 -73
-257 -91 -14 -9 -52 -44 -84 -78 l-58 -61 21 42 c11 23 20 52 20 63 0 25 -13
23 -107 -21 -46 -22 -68 -39 -88 -72 -23 -37 -26 -33 -8 11 9 22 -10 12 -132
-66 -119 -77 -120 -77 -163 -157 -40 -75 -47 -73 -16 4 8 19 12 36 9 39 -5 5
-204 -127 -244 -162 -32 -29 -51 -77 -51 -131 0 -28 -4 -44 -10 -40 -6 3 -10
21 -10 39 0 45 -20 70 -49 61 -13 -4 -58 -42 -100 -84 -82 -82 -89 -96 -92
-201 l-2 -45 -10 58 c-6 31 -13 57 -17 57 -23 0 -55 -257 -41 -323 5 -23 12
-69 16 -103 7 -60 6 -61 -47 -148 -29 -49 -57 -97 -63 -107 -5 -10 -19 -20
-30 -21 -14 -2 -19 -10 -18 -24 1 -14 -19 -46 -57 -89 -57 -67 -58 -70 -53
-115 4 -32 0 -56 -11 -77 -12 -24 -13 -33 -3 -41 7 -5 263 -15 622 -22 476
-10 646 -10 776 -1 323 23 439 75 439 197 0 67 -71 125 -190 155 -71 18 -287
18 -360 0 -111 -27 -182 -78 -173 -124 6 -33 37 -53 110 -72 137 -36 423 1
423 54 0 18 -38 41 -68 41 -9 0 1 -9 23 -19 l40 -19 -36 -15 c-61 -27 -237
-42 -324 -29 -129 20 -172 56 -119 99 121 98 505 89 608 -14 30 -30 35 -85 11
-119 -21 -31 -96 -60 -210 -81 -91 -16 -161 -18 -770 -18 -369 0 -695 -4 -725
-9 l-55 -9 25 28 c14 15 37 33 52 41 16 8 27 18 26 22 -2 7 20 58 62 147 32
69 22 10 -14 -73 -18 -44 -28 -78 -22 -76 6 2 26 42 45 88 23 58 40 86 53 89
14 4 18 11 13 25 -3 11 -1 23 5 27 5 3 10 13 10 22 0 9 25 53 56 98 l56 83
120 7 c65 4 116 10 113 14 -4 3 -25 14 -48 24 l-42 17 86 -6 c80 -6 91 -4 147
21 49 22 79 47 163 137 l102 110 -94 -6 -94 -6 95 20 c52 11 108 25 123 31 27
12 107 94 107 110 0 5 -42 10 -92 10 l-93 2 115 11 116 11 67 59 c37 33 67 63
67 67 0 4 -12 12 -27 17 -27 10 -26 10 14 11 23 1 53 5 66 10 33 13 170 131
162 139 -4 4 -32 10 -63 13 l-57 6 65 2 c36 0 79 5 95 10 17 4 93 49 169 100
l139 91 -54 1 c-63 2 -51 5 44 14 64 6 75 12 187 86 66 43 120 81 120 85 0 3
-30 3 -67 0 l-68 -5 84 14 c72 13 96 23 163 67 64 42 76 54 61 59 -14 6 -13 8
9 8 29 1 153 80 150 96 -2 10 -157 16 -217 9z m28 -121 c-7 -2 -19 -2 -25 0
-7 3 -2 5 12 5 14 0 19 -2 13 -5z m-423 -77 c-259 -99 -477 -206 -630 -309
-150 -100 -361 -280 -528 -449 -242 -246 -341 -365 -467 -565 -51 -81 -85
-114 -85 -83 0 18 183 283 257 371 132 158 431 453 572 564 306 242 504 351
896 491 182 65 172 51 -15 -20z m133 -63 c-7 -2 -19 -2 -25 0 -7 3 -2 5 12 5
14 0 19 -2 13 -5z m-1236 -899 c-3 -3 -12 -4 -19 -1 -8 3 -5 6 6 6 11 1 17 -2
13 -5z m-567 -546 c0 -12 -18 -10 -50 7 -41 21 -38 24 10 12 22 -6 40 -15 40
-19z m-124 -89 c4 -7 -2 -19 -13 -28 -12 -9 -33 -35 -47 -58 -14 -24 -28 -43
-31 -43 -3 0 9 22 25 49 17 26 30 55 30 63 0 27 23 38 36 17z m-106 -159 c-6
-11 -13 -20 -16 -20 -2 0 0 9 6 20 6 11 13 20 16 20 2 0 0 -9 -6 -20z"/>
</g>
</svg>
